<?xml version="1.0" standalone="no"?>
<!DOCTYPE svg PUBLIC "-//W3C//DTD SVG 20010904//EN"
 "http://www.w3.org/TR/2001/REC-SVG-20010904/DTD/svg10.dtd">
<svg version="1.0" xmlns="http://www.w3.org/2000/svg"
 width="251.000000pt" height="82.000000pt" viewBox="0 0 729.000000 274.000000"
 preserveAspectRatio="xMidYMid meet">

<g transform="translate(0.000000,274.000000) scale(0.100000,-0.100000)"
fill="#000000" stroke="none">
<path d="M2530 2164 c-189 -40 -346 -178 -426 -372 l-24 -57 0 213 0 213 -132
-3 -133 -3 -5 -357 -5 -358 -230 360 -230 360 -132 0 -133 0 0 -585 0 -585
135 0 135 0 2 357 3 357 228 -357 229 -357 134 0 134 0 0 208 1 207 28 -71
c35 -90 75 -147 151 -218 110 -101 230 -146 392 -146 172 0 296 50 413 165 68
66 99 117 153 245 8 19 11 -28 11 -182 l1 -208 263 0 c275 0 321 6 402 48 45
23 93 70 124 122 l21 35 0 -102 0 -103 335 0 335 0 0 115 0 115 -200 0 -200 0
0 120 0 120 190 0 190 0 0 115 0 115 -190 0 -190 0 0 115 0 115 200 0 200 0 0
120 0 120 -335 0 -335 0 0 -362 c-1 -337 -2 -361 -17 -333 -8 17 -27 43 -42
59 -27 30 -114 76 -143 76 -26 0 -23 5 31 57 55 54 81 120 81 208 0 130 -61
220 -180 264 -61 23 -81 25 -302 29 l-238 4 0 -214 0 -213 -24 57 c-38 93 -76
150 -146 219 -140 138 -337 195 -530 153z m1090 -230 c48 -19 70 -55 70 -113
0 -73 -64 -121 -162 -121 l-38 0 0 125 0 125 45 0 c24 0 63 -7 85 -16z m-857
-30 c256 -87 249 -592 -10 -665 -110 -30 -229 -5 -301 64 -130 124 -130 406
-1 536 75 76 203 102 312 65z m940 -458 c45 -22 67 -60 67 -116 0 -93 -56
-132 -192 -134 l-83 -1 -3 139 -3 138 88 -4 c57 -3 102 -11 126 -22z"/>
<path d="M4730 1575 l0 -585 335 0 335 0 0 48 0 47 17 -33 c24 -49 68 -75 132
-80 65 -4 109 19 149 78 48 71 9 192 -74 226 -76 32 -152 7 -201 -65 -20 -29
-23 -31 -23 -13 0 21 -3 22 -202 24 -154 2 -203 6 -204 16 -1 6 -2 217 -3 467
l-1 455 -130 0 -130 0 0 -585z"/>
<path d="M5547 854 c-4 -4 -7 -106 -7 -226 l0 -218 35 0 c31 0 35 3 40 32 3
18 5 119 3 223 l-3 190 -30 3 c-17 2 -34 0 -38 -4z"/>
<path d="M5188 838 c-19 -16 -132 -411 -120 -422 3 -3 25 -6 48 -6 38 0 44 3
50 25 5 19 13 25 33 25 14 0 35 3 46 6 16 4 23 -2 32 -25 10 -27 16 -31 50
-31 22 0 42 2 45 5 7 7 -21 130 -69 303 l-37 132 -31 0 c-17 0 -38 -6 -47 -12z
m61 -260 c1 -13 -7 -18 -25 -18 -26 0 -26 1 -19 48 4 26 10 52 13 57 6 10 30
-56 31 -87z"/>
</g>
</svg>
